<?xml version="1.0" standalone="no"?><!DOCTYPE svg PUBLIC "-//W3C//DTD SVG 1.1//EN" "http://www.w3.org/Graphics/SVG/1.1/DTD/svg11.dtd"><svg t="1779632526942" class="icon" viewBox="0 0 1024 1024" version="1.1" xmlns="http://www.w3.org/2000/svg" p-id="1245" xmlns:xlink="http://www.w3.org/1999/xlink" width="200" height="200"><path d="M294.76 837.15l-33.03-480.98 492.86-59.07-47.03 550.05-412.8-10z" fill="#719E65" p-id="1246"></path><path d="M294.76 355.44m-142.76 0a142.76 142.76 0 1 0 285.52 0 142.76 142.76 0 1 0-285.52 0Z" fill="#719E65" p-id="1247"></path><path d="M726.24 317.09m-142.76 0a142.76 142.76 0 1 0 285.52 0 142.76 142.76 0 1 0-285.52 0Z" fill="#719E65" p-id="1248"></path><path d="M294.95 354.72m-95.14 0a95.14 95.14 0 1 0 190.28 0 95.14 95.14 0 1 0-190.28 0Z" fill="#FFFFFF" p-id="1249"></path><path d="M294.95 392.01m-32.79 0a32.79 32.79 0 1 0 65.58 0 32.79 32.79 0 1 0-65.58 0Z" fill="#000600" p-id="1250"></path><path d="M726.42 317.43m-95.14 0a95.14 95.14 0 1 0 190.28 0 95.14 95.14 0 1 0-190.28 0Z" fill="#FFFFFF" p-id="1251"></path><path d="M726.42 354.72m-32.79 0a32.79 32.79 0 1 0 65.58 0 32.79 32.79 0 1 0-65.58 0Z" fill="#000600" p-id="1252"></path><path d="M461.49 428.42m-23.97 0a23.97 23.97 0 1 0 47.94 0 23.97 23.97 0 1 0-47.94 0Z" fill="#89B27D" p-id="1253"></path><path d="M558.44 425.22m-23.97 0a23.97 23.97 0 1 0 47.94 0 23.97 23.97 0 1 0-47.94 0Z" fill="#89B27D" p-id="1254"></path><path d="M390.09 652.91l241.2-16.88s-21.58 83.72-123.12 89.07c-101.54 5.35-118.08-72.19-118.08-72.19z" fill="#FC6037" p-id="1255"></path></svg>